<svg xmlns="http://www.w3.org/2000/svg" xmlns:xlink="http://www.w3.org/1999/xlink" width="100%" height="100%" viewBox="0 0 1024 614" version="1.1">
    <!-- Generator: Sketch 49.1 (51147) - http://www.bohemiancoding.com/sketch -->
    <desc>Created with Sketch.</desc>
    <defs/>
    <g id="intro-redesign" stroke="none" stroke-width="1" fill="none" fill-rule="evenodd" opacity="0.5">
        <g id="web-background" stroke="#9DF4FE" stroke-width="3">
            <g id="Group-11" transform="translate(-36.000000, -272.000000)">
                <g id="Group-3" transform="translate(885.000000, 717.000000)">
                    <rect id="Rectangle-2-Copy-5" x="1.5" y="1.5" width="401" height="273"/>
                    <g id="Group-2" transform="translate(18.000000, 17.000000)">
                        <rect id="Rectangle-2-Copy-6" x="1.5" y="1.5" width="196" height="158"/>
                    </g>
                </g>
                <g id="Group-4" transform="translate(75.000000, 231.000000)">
                    <rect id="Rectangle-2" x="1.5" y="1.5" width="276" height="415"/>
                    <rect id="Rectangle-2-Copy" x="13.5" y="103.5" width="253" height="50"/>
                    <rect id="Rectangle-2-Copy-11" x="13.5" y="26.5" width="253" height="50"/>
                    <rect id="Rectangle-2-Copy-2" x="13.5" y="180.5" width="253" height="50"/>
                    <rect id="Rectangle-2-Copy-3" x="13.5" y="258.5" width="253" height="50"/>
                    <rect id="Rectangle-2-Copy-4" x="13.5" y="335.5" width="253" height="50"/>
                </g>
                <g id="Group-4-Copy-2" transform="translate(612.000000, 607.000000)">
                    <rect id="Rectangle-2" x="1.5" y="1.5" width="241" height="363"/>
                    <rect id="Rectangle-2-Copy" x="11.5" y="90.5" width="221" height="43"/>
                    <rect id="Rectangle-2-Copy-11" x="11.5" y="23.5" width="221" height="43"/>
                    <rect id="Rectangle-2-Copy-2" x="11.5" y="158.5" width="221" height="43"/>
                    <rect id="Rectangle-2-Copy-3" x="11.5" y="226.5" width="221" height="43"/>
                </g>
                <g id="Group-10" transform="translate(389.000000, 0.000000)">
                    <g id="Group-4-Copy">
                        <rect id="Rectangle-2" x="1.5" y="1.5" width="276" height="415"/>
                        <rect id="Rectangle-2-Copy-3" x="13.5" y="258.5" width="253" height="50"/>
                        <rect id="Rectangle-2-Copy-4" x="13.5" y="335.5" width="253" height="50"/>
                    </g>
                </g>
                <g id="Group-8" transform="translate(714.000000, 181.000000)">
                    <rect id="Rectangle-3" x="1.5" y="49.5" width="452" height="280"/>
                    <rect id="Rectangle-3-Copy-7" x="51.5" y="1.5" width="452" height="280"/>
                    <rect id="Rectangle-3-Copy-8" x="96.5" y="180.5" width="130" height="71"/>
                    <rect id="Rectangle-3-Copy-10" x="96.5" y="68.5" width="130" height="71"/>
                    <rect id="Rectangle-3-Copy-9" x="281.5" y="180.5" width="130" height="71"/>
                    <rect id="Rectangle-3-Copy-11" x="281.5" y="68.5" width="130" height="71"/>
                </g>
                <g id="Group-6" transform="translate(0.000000, 665.000000)">
                    <rect id="Rectangle-3-Copy" x="1.5" y="1.5" width="569" height="306"/>
                    <rect id="Rectangle-3-Copy-6" x="22.5" y="100.5" width="514" height="252"/>
                    <g id="Group-5" transform="translate(21.000000, 24.000000)">
                        <rect id="Rectangle-3-Copy-2" x="1.5" y="1.5" width="526" height="51"/>
                        <rect id="Rectangle-3-Copy-3" x="367.5" y="15.5" width="148" height="24"/>
                        <rect id="Rectangle-3-Copy-4" x="190.5" y="15.5" width="148" height="24"/>
                        <rect id="Rectangle-3-Copy-5" x="1.5" y="15.5" width="148" height="24"/>
                    </g>
                </g>
                <g id="Group-9" transform="translate(390.000000, 444.000000)">
                    <rect id="Rectangle-4" x="1.5" y="1.5" width="279" height="142"/>
                    <circle id="Oval-2" cx="59" cy="55" r="35.5"/>
                    <rect id="Rectangle-5" x="139.5" y="15.5" width="130" height="27"/>
                    <rect id="Rectangle-5-Copy-3" x="10.5" y="107.5" width="116" height="16"/>
                    <rect id="Rectangle-5-Copy" x="139.5" y="55.5" width="130" height="27"/>
                    <rect id="Rectangle-5-Copy-2" x="139.5" y="96.5" width="130" height="27"/>
                </g>
                <g id="Group-7" transform="translate(885.000000, 538.000000)">
                    <rect id="Rectangle-6" x="1.5" y="1.5" width="416" height="147"/>
                    <rect id="Rectangle-7" x="38.5" y="18.5" width="204" height="105"/>
                </g>
            </g>
        </g>
    </g>
</svg>