<?xml version="1.0" encoding="UTF-8"?>
<svg viewBox="0 0 1000 1470" version="1.1" xmlns="http://www.w3.org/2000/svg" xmlns:xlink="http://www.w3.org/1999/xlink">
    <!-- Generator: Sketch 57.1 (83088) - https://sketch.com -->
    <title>web cover copy</title>
    <desc>Created with Sketch.</desc>
    <g id="web-cover-copy" stroke="none" stroke-width="1" fill="none" fill-rule="evenodd" stroke-linecap="round">
        <path class="slower" d="M-4.57459474,603.584788 C12.8868914,603.584788 34.3501665,583.734009 44.4254053,574.620808 C51.8768556,567.880863 50.6329526,539.363988 50.6329526,530.089263 C50.6329526,508.274015 35.8703739,495.620808 5.49471267,495.620808 C-24.8809486,495.620808 -49.5052873,513.305561 -49.5052873,535.120808 C-49.5052873,556.936056 -34.950256,603.584788 -4.57459474,603.584788 Z" id="Oval-Copy-50" stroke="#CBF6FB" stroke-width="3" transform="translate(0.602798, 549.602798) scale(-1, 1) rotate(135.000000) translate(-0.602798, -549.602798) "></path>
        <path class="slower" d="M-3.22020832,589.602798 C9.67341912,589.602798 25.5219826,574.893611 32.9615771,568.14084 C38.4637562,563.146623 37.5452535,542.015964 37.5452535,535.143505 C37.5452535,518.978671 26.6445096,509.602798 4.21500637,509.602798 C-18.2144968,509.602798 -36.3972017,522.706985 -36.3972017,538.871819 C-36.3972017,555.036653 -25.6497115,589.602798 -3.22020832,589.602798 Z" id="Oval-Copy-51" stroke="#CBF6FB" stroke-width="3" transform="translate(0.602798, 549.602798) scale(-1, 1) rotate(135.000000) translate(-0.602798, -549.602798) "></path>
        <path class="slower" d="M-3.22020832,589.602798 C9.67341912,589.602798 25.5219826,574.893611 32.9615771,568.14084 C38.4637562,563.146623 37.5452535,542.015964 37.5452535,535.143505 C37.5452535,518.978671 26.6445096,509.602798 4.21500637,509.602798 C-18.2144968,509.602798 -36.3972017,522.706985 -36.3972017,538.871819 C-36.3972017,555.036653 -25.6497115,589.602798 -3.22020832,589.602798 Z" id="Oval-Copy-52" stroke="#CBF6FB" stroke-width="3" transform="translate(0.602798, 549.602798) scale(-1, 1) rotate(135.000000) translate(-0.602798, -549.602798) "></path>
        <rect id="Rectangle" stroke="#CBF6FB" stroke-width="2.85" transform="translate(554.500000, 1162.328733) rotate(45.000000) translate(-554.500000, -1162.328733) " x="387" y="990.828733" width="335" height="343"></rect>
        <rect id="Rectangle-Copy-6" stroke="#CBF6FB" stroke-width="2.85" transform="translate(646.500000, 1071.828733) rotate(45.000000) translate(-646.500000, -1071.828733) " x="507" y="1050.82873" width="279" height="42"></rect>
        <rect id="Rectangle-Copy-7" stroke="#CBF6FB" stroke-width="2.85" transform="translate(613.500000, 1102.828733) rotate(45.000000) translate(-613.500000, -1102.828733) " x="474" y="1089.82873" width="279" height="26"></rect>
        <rect id="Rectangle-Copy-8" stroke="#CBF6FB" stroke-width="2.85" transform="translate(520.500000, 1195.828733) rotate(45.000000) translate(-520.500000, -1195.828733) " x="381" y="1093.82873" width="279" height="204"></rect>
        <rect id="Rectangle-Copy-9" stroke="#CBF6FB" stroke-width="2.85" transform="translate(573.000000, 1144.328733) rotate(45.000000) translate(-573.000000, -1144.328733) " x="452" y="1128.82873" width="242" height="31"></rect>
        <rect id="Rectangle-Copy-10" stroke="#CBF6FB" stroke-width="2.85" transform="translate(542.000000, 1175.328733) rotate(45.000000) translate(-542.000000, -1175.328733) " x="421" y="1159.82873" width="242" height="31"></rect>
        <rect id="Rectangle-Copy-11" stroke="#CBF6FB" stroke-width="2.85" transform="translate(508.000000, 1209.328733) rotate(45.000000) translate(-508.000000, -1209.328733) " x="387" y="1193.82873" width="242" height="31"></rect>
        <rect id="Rectangle-Copy-12" stroke="#CBF6FB" stroke-width="2.85" transform="translate(470.000000, 1247.328733) rotate(45.000000) translate(-470.000000, -1247.328733) " x="349" y="1231.82873" width="242" height="31"></rect>
        <rect id="Rectangle" stroke="#CBF6FB" stroke-width="2.85" transform="translate(770.000000, 934.828733) rotate(45.000000) translate(-770.000000, -934.828733) " x="657" y="821.828733" width="226" height="226"></rect>
        <rect id="Rectangle-Copy-13" stroke="#CBF6FB" stroke-width="2.85" transform="translate(551.000000, 433.828733) rotate(45.000000) translate(-551.000000, -433.828733) " x="438" y="320.828733" width="226" height="226"></rect>
        <rect id="Rectangle-Copy-14" stroke="#CBF6FB" stroke-width="2.85" transform="translate(731.000000, 613.828733) rotate(45.000000) translate(-731.000000, -613.828733) " x="618" y="500.828733" width="226" height="226"></rect>
        <rect class="faster" id="Rectangle-Copy-4" stroke="#CBF6FB" stroke-width="2.85" transform="translate(525.500000, 729.828733) rotate(45.000000) translate(-525.500000, -729.828733) " x="358" y="644.828733" width="335" height="170"></rect>
        <rect id="Rectangle-Copy" stroke="#CBF6FB" stroke-width="2.85" transform="translate(423.500000, 699.828733) scale(1, -1) rotate(-45.000000) translate(-423.500000, -699.828733) " x="365" y="690.828733" width="117" height="18"></rect>
        <circle class="slower" id="Mask" stroke="#CBF6FB" stroke-width="2.85" transform="translate(477.000000, 647.828733) rotate(45.000000) translate(-477.000000, -647.828733) " cx="477" cy="647.828733" r="48"></circle>
        <path d="M473.65404,608.828733 C489.397483,608.828733 502.160065,623.716758 502.160065,642.082067 C502.160065,660.447376 489.397483,675.3354 473.65404,675.3354 C471.200277,675.3354 468.818925,674.973738 466.54702,674.293617 C476.223711,677.697412 485.49005,674.106862 491.845485,667.715611 C497.030331,662.501548 503.757603,670.738951 508,680.229725 C499.298293,689.2348 487.125772,694.828733 473.65404,694.828733 C460.022597,694.828733 447.721353,689.101379 439,679.909041 C442.247338,671.527571 448.520717,663.203782 453.44843,665.536186 C448.318225,659.524715 445.148015,651.235267 445.148015,642.082067 C445.148015,623.716758 457.910597,608.828733 473.65404,608.828733 Z" id="Path" stroke="#CBF6FB" stroke-width="2.85" transform="translate(473.500000, 651.828733) rotate(45.000000) translate(-473.500000, -651.828733) "></path>
        <ellipse id="Oval" stroke="#CBF6FB" stroke-width="2.85" transform="translate(480.500000, 644.828733) rotate(45.000000) translate(-480.500000, -644.828733) " cx="480.5" cy="644.828733" rx="28.5" ry="33"></ellipse>
        <path d="" id="Path-16" stroke="#979797" stroke-width="2.85" transform="translate(409.500000, 681.328733) rotate(45.000000) translate(-409.500000, -681.328733) "></path>
        <rect id="Rectangle-Copy-5" stroke="#CBF6FB" stroke-width="2.85" transform="translate(556.500000, 802.828733) scale(1, -1) rotate(-45.000000) translate(-556.500000, -802.828733) " x="478" y="772.828733" width="157" height="60"></rect>
        <path d="M505,636.687507 C502.279253,635.010409 500.527873,633.446122 496.402648,633.912112 C493.758617,634.210784 490.705782,636.971324 490.705782,644.03829 C490.705782,647.83051 493.631612,655.395333 492.248245,660.145671 C491.781871,661.747149 490.414238,663.040659 489.04055,663.997354 C487.168412,665.301192 483.964666,665.440984 479,661.666764" id="Path" stroke="#CBF6FB" stroke-width="2.85" transform="translate(492.000000, 649.328733) rotate(45.000000) translate(-492.000000, -649.328733) "></path>
        <circle class="slower" id="Oval" stroke="#CBF6FB" stroke-width="2.85" transform="translate(480.500000, 631.328733) rotate(45.000000) translate(-480.500000, -631.328733) " cx="480.5" cy="631.328733" r="2.5"></circle>
        <circle class="slower" id="Oval-Copy" stroke="#CBF6FB" stroke-width="2.85" transform="translate(498.500000, 650.328733) rotate(45.000000) translate(-498.500000, -650.328733) " cx="498.5" cy="650.328733" r="2.5"></circle>
        <path d="M470,632.828733 C473,632.828733 474.765915,633.384311 476,634.828733" id="Path-2" stroke="#CBF6FB" stroke-width="2.85" fill="#FFFFFF" transform="translate(473.000000, 633.828733) rotate(45.000000) translate(-473.000000, -633.828733) "></path>
        <path d="M459,657.828733 C466.496465,661.569423 469.436756,661.892283 477,658.343849" id="Path-3" stroke="#CBF6FB" stroke-width="2.85" transform="translate(468.000000, 659.328733) rotate(45.000000) translate(-468.000000, -659.328733) "></path>
        <rect id="Rectangle-Copy-2" stroke="#CBF6FB" stroke-width="2.85" transform="translate(620.500000, 739.828733) scale(1, -1) rotate(-45.000000) translate(-620.500000, -739.828733) " x="542" y="730.828733" width="157" height="18"></rect>
        <rect id="Rectangle-Copy-3" stroke="#CBF6FB" stroke-width="2.85" transform="translate(596.500000, 763.828733) scale(1, -1) rotate(-45.000000) translate(-596.500000, -763.828733) " x="518" y="754.828733" width="157" height="18"></rect>
        <path d="" id="Path-9" stroke="#CBF6FB" stroke-width="2.85" transform="translate(548.500000, 713.328733) rotate(45.000000) translate(-548.500000, -713.328733) "></path>
        <rect class="slower" id="Rectangle" stroke="#CBF6FB" stroke-width="2.85" transform="translate(245.500000, 571.328733) rotate(45.000000) translate(-245.500000, -571.328733) " x="132" y="399.828733" width="227" height="343"></rect>
        <rect id="Rectangle-Copy-6" stroke="#CBF6FB" stroke-width="2.85" transform="translate(336.000000, 480.828733) rotate(45.000000) translate(-336.000000, -480.828733) " x="242" y="459.828733" width="188" height="42"></rect>
        <rect id="Rectangle-Copy-7" stroke="#CBF6FB" stroke-width="2.85" transform="translate(304.000000, 512.828733) rotate(45.000000) translate(-304.000000, -512.828733) " x="210" y="499.828733" width="188" height="26"></rect>
        <rect class="slower" id="Rectangle-Copy-8" stroke="#CBF6FB" stroke-width="2.85" transform="translate(211.000000, 605.828733) rotate(45.000000) translate(-211.000000, -605.828733) " x="117" y="503.828733" width="188" height="204"></rect>
        <rect class="slower" id="Rectangle-Copy-9" stroke="#CBF6FB" stroke-width="2.85" transform="translate(263.500000, 554.328733) rotate(45.000000) translate(-263.500000, -554.328733) " x="182" y="538.828733" width="163" height="31"></rect>
        <rect id="Rectangle" stroke="#CBF6FB" stroke-width="2.85" transform="translate(342.000000, 898.328733) rotate(45.000000) translate(-342.000000, -898.328733) " x="202" y="762.828733" width="280" height="271"></rect>
        <rect class="faster" id="Rectangle-Copy-49" stroke="#CBF6FB" stroke-width="2.85" transform="translate(217.807918, 1463.807918) rotate(45.000000) translate(-217.807918, -1463.807918) " x="77.8079182" y="1328.30792" width="280" height="271"></rect>
        <rect id="Rectangle-Copy-15" stroke="#CBF6FB" stroke-width="2.85" transform="translate(667.425667, -79.192082) rotate(45.000000) translate(-667.425667, 79.192082) " x="527.425667" y="-214.692082" width="280" height="271"></rect>
        <rect class="slower" id="Rectangle-Copy-25" stroke="#CBF6FB" stroke-width="2.85" transform="translate(378.500000, 861.828733) rotate(45.000000) translate(-378.500000, -861.828733) " x="277" y="804.828733" width="203" height="114"></rect>
        <rect class="slower" id="Rectangle-Copy-50" stroke="#CBF6FB" stroke-width="2.85" transform="translate(254.307918, 1427.307918) rotate(45.000000) translate(-254.307918, -1427.307918) " x="152.807918" y="1370.30792" width="203" height="114"></rect>
        <rect id="Rectangle-Copy-27" stroke="#CBF6FB" stroke-width="2.85" transform="translate(277.500000, 963.328733) rotate(45.000000) translate(-277.500000, -963.328733) " x="176" y="946.828733" width="203" height="33"></rect>
        <rect id="Rectangle-Copy-28" stroke="#CBF6FB" stroke-width="2.85" transform="translate(313.500000, 927.328733) rotate(45.000000) translate(-313.500000, -927.328733) " x="212" y="910.828733" width="203" height="33"></rect>
        <rect id="Rectangle-Copy-26" stroke="#CBF6FB" stroke-width="2.85" transform="translate(278.500000, 962.328733) rotate(45.000000) translate(-278.500000, -962.328733) " x="177" y="945.828733" width="203" height="33"></rect>
        <rect class="slower" id="Rectangle" stroke="#CBF6FB" stroke-width="2.85" transform="translate(186.500000, 1054.328733) rotate(45.000000) translate(-186.500000, -1054.328733) " x="46" y="998.828733" width="281" height="111"></rect>
        <rect id="Rectangle-Copy-17" stroke="#CBF6FB" stroke-width="2.85" transform="translate(511.925667, 76.807918) rotate(45.000000) translate(-511.925667, -76.807918) " x="371.425667" y="21.3079182" width="281" height="111"></rect>
        <rect id="Rectangle-Copy-21" stroke="#CBF6FB" stroke-width="2.85" transform="translate(313.500000, 1114.328733) rotate(45.000000) translate(-313.500000, -1114.328733) " x="305" y="1105.82873" width="17" height="17"></rect>
        <rect id="Rectangle-Copy-23" stroke="#CBF6FB" stroke-width="2.85" transform="translate(638.925667, 136.807918) rotate(45.000000) translate(-638.925667, -136.807918) " x="630.425667" y="128.307918" width="17" height="17"></rect>
        <rect id="Rectangle" stroke="#CBF6FB" stroke-width="2.85" transform="translate(340.500000, 206.828733) rotate(45.000000) translate(-340.500000, -206.828733) " x="173" y="81.8287335" width="335" height="250"></rect>
        <rect id="Rectangle-Copy-22" stroke="#CBF6FB" stroke-width="2.85" transform="translate(340.000000, 206.828733) rotate(45.000000) translate(-340.000000, -206.828733) " x="195" y="105.828733" width="290" height="202"></rect>
        <rect id="Rectangle-Copy-30" stroke="#CBF6FB" stroke-width="2.85" transform="translate(342.500000, 303.328733) rotate(45.000000) translate(-342.500000, -303.328733) " x="283" y="284.828733" width="119" height="37"></rect>
        <rect class="slower" id="Rectangle" stroke="#CBF6FB" stroke-width="2.85" transform="translate(318.000000, 1269.828733) rotate(45.000000) translate(-318.000000, -1269.828733) " x="242" y="1220.82873" width="152" height="98"></rect>
        <rect id="Rectangle-Copy-45" stroke="#CBF6FB" stroke-width="2.85" transform="translate(-19.611652, 1031.388348) rotate(45.000000) translate(19.611652, -1031.388348) " x="-95.6116524" y="982.388348" width="152" height="98"></rect>
        <rect id="Rectangle-Copy-33" stroke="#CBF6FB" stroke-width="2.85" transform="translate(318.000000, 1269.828733) rotate(45.000000) translate(-318.000000, -1269.828733) " x="259" y="1236.82873" width="118" height="66"></rect>
        <rect id="Rectangle-Copy-46" stroke="#CBF6FB" stroke-width="2.85" transform="translate(-19.611652, 1031.388348) rotate(45.000000) translate(19.611652, -1031.388348) " x="-78.6116524" y="998.388348" width="118" height="66"></rect>
        <rect class="slower" id="Rectangle-Copy-34" stroke="#CBF6FB" stroke-width="2.85" transform="translate(323.500000, 1264.828733) rotate(45.000000) translate(-323.500000, -1264.828733) " x="274" y="1251.82873" width="99" height="26"></rect>
        <rect id="Rectangle-Copy-47" stroke="#CBF6FB" stroke-width="2.85" transform="translate(-14.111652, 1026.388348) rotate(45.000000) translate(14.111652, -1026.388348) " x="-63.6116524" y="1013.38835" width="99" height="26"></rect>
        <rect id="Rectangle-Copy-35" stroke="#CBF6FB" stroke-width="2.85" transform="translate(305.500000, 1282.828733) rotate(45.000000) translate(-305.500000, -1282.828733) " x="256" y="1277.82873" width="99" height="10"></rect>
        <rect id="Rectangle-Copy-48" stroke="#CBF6FB" stroke-width="2.85" transform="translate(-32.111652, 1044.388348) rotate(45.000000) translate(32.111652, -1044.388348) " x="-81.6116524" y="1039.38835" width="99" height="10"></rect>
        <rect class="slower" id="Rectangle-Copy-10" stroke="#CBF6FB" stroke-width="2.85" transform="translate(232.500000, 584.328733) rotate(45.000000) translate(-232.500000, -584.328733) " x="151" y="568.828733" width="163" height="31"></rect>
        <rect id="Rectangle-Copy-16" stroke="#CBF6FB" stroke-width="2.85" transform="translate(217.500000, 1059.328733) rotate(45.000000) translate(-217.500000, -1059.328733) " x="128" y="1042.82873" width="179" height="33"></rect>
        <rect id="Rectangle-Copy-18" stroke="#CBF6FB" stroke-width="2.85" transform="translate(542.925667, 81.807918) rotate(45.000000) translate(-542.925667, -81.807918) " x="453.425667" y="65.3079182" width="179" height="33"></rect>
        <rect id="Rectangle-Copy-77" stroke="#CBF6FB" stroke-width="2.85" transform="translate(488.015765, 1418.015765) rotate(45.000000) translate(-488.015765, -1418.015765) " x="363.515765" y="1385.51576" width="249" height="65"></rect>
        <circle class="slower" id="Oval-Copy-71" stroke="#CBF6FB" stroke-width="2.85" transform="translate(423.515765, 1353.515765) rotate(45.000000) translate(-423.515765, -1353.515765) " cx="423.515765" cy="1353.51576" r="18"></circle>
        <circle class="slower" id="Oval-Copy-74" stroke="#CBF6FB" stroke-width="2.85" transform="translate(554.000000, 329.000000) rotate(45.000000) translate(-554.000000, -329.000000) " cx="554" cy="329" r="18"></circle>
        <path d="M404.806133,442.330552 L442.883887,401.806133 L468.963339,415.733812 L499.608693,401.806133 C514.084296,406.437563 524.645828,412.497379 531.29329,419.985579 C537.940753,427.473779 551.197756,429.752982 571.064301,426.823188 L588.802141,401.806133 L608.366342,422.068342 L630.806133,415.733812 L630.806133,466.709242 L404.806133,466.709242 L404.806133,483.96624 L630.806133,498.64295 L404.806133,524.515218 L404.806133,532.806133 L608.366342,532.806133 L630.806133,508.911428 L630.806133,493.522525" id="Path-11-Copy-2" stroke="#CBF6FB" stroke-width="2.85" transform="translate(517.806133, 467.306133) rotate(45.000000) translate(-517.806133, -467.306133) "></path>
        <path d="M-2.1869633,578.602798 C7.22189997,578.602798 18.7870679,567.938638 24.2159612,563.042879 C28.2310649,559.422071 27.5608062,544.102344 27.5608062,539.119811 C27.5608062,527.400306 19.6062092,520.602798 3.23873391,520.602798 C-13.1287414,520.602798 -26.3972017,530.103334 -26.3972017,541.822839 C-26.3972017,553.542343 -18.5544386,578.602798 -2.1869633,578.602798 Z" id="Oval-Copy-53" stroke="#CBF6FB" stroke-width="3" transform="translate(0.602798, 549.602798) scale(-1, 1) rotate(135.000000) translate(-0.602798, -549.602798) "></path>
        <path d="M-1.25704278,568.602798 C5.01553274,568.602798 12.7256447,561.615934 16.3449069,558.408368 C19.0216427,556.036115 18.5748035,545.999052 18.5748035,542.734634 C18.5748035,535.056338 13.2717389,530.602798 2.3600887,530.602798 C-8.55156151,530.602798 -17.3972017,536.827287 -17.3972017,544.505583 C-17.3972017,552.183879 -12.168693,568.602798 -1.25704278,568.602798 Z" id="Oval-Copy-54" stroke="#CBF6FB" stroke-width="3" transform="translate(0.602798, 549.602798) scale(-1, 1) rotate(135.000000) translate(-0.602798, -549.602798) "></path>
        <path d="M-0.430446757,560.602798 C3.05431742,560.602798 7.33771296,556.557772 9.34841416,554.70076 C10.8354896,553.32735 10.5872456,547.516419 10.5872456,545.626493 C10.5872456,541.181163 7.64109862,538.602798 1.57907073,538.602798 C-4.48295716,538.602798 -9.39720173,542.20645 -9.39720173,546.651779 C-9.39720173,551.097108 -6.49247465,560.602798 -0.430446757,560.602798 Z" id="Oval-Copy-55" stroke="#CBF6FB" stroke-width="3" transform="translate(0.602798, 549.602798) scale(-1, 1) rotate(135.000000) translate(-0.602798, -549.602798) "></path>
        <path d="M11.9393493,809.440321 C20.8095777,809.440321 34.7605965,811.639162 39.8786986,807.32016 C43.6639473,804.125911 52,801.961918 52,797.566365 C52,787.227505 27.3698259,772 11.9393493,772 C-3.49112723,772 -16,780.381301 -16,790.720161 C-16,801.05902 -3.49112723,809.440321 11.9393493,809.440321 Z" id="Oval-Copy-28" stroke="#CBF6FB" stroke-width="2.85" transform="translate(18.000000, 791.000000) scale(-1, 1) translate(-18.000000, -791.000000) "></path>
        <path d="M14.7914202,800.705432 C19.4874235,800.705432 26.873257,801.862717 29.5828404,799.589558 C31.5867956,797.908374 36,796.76943 36,794.455981 C36,789.014477 22.960496,781 14.7914202,781 C6.62234441,781 0,785.411211 0,790.852716 C0,796.294221 6.62234441,800.705432 14.7914202,800.705432 Z" id="Oval-Copy-29" stroke="#CBF6FB" stroke-width="2.85" transform="translate(18.000000, 791.000000) scale(-1, 1) translate(-18.000000, -791.000000) "></path>
        <rect id="Rectangle" stroke="#CBF6FB" stroke-width="3" transform="translate(746.500000, 219.500000) rotate(45.000000) translate(-746.500000, -219.500000) " x="647" y="69" width="199" height="301"></rect>
        <rect id="Rectangle-Copy-54" stroke="#CBF6FB" stroke-width="3" transform="translate(109.104816, 367.038799) rotate(45.000000) translate(-109.104816, -367.038799) " x="9.60481605" y="243.538799" width="199" height="247"></rect>
        <rect id="Rectangle-Copy-29" stroke="#CBF6FB" stroke-width="3" transform="translate(53.776695, 1244.776695) rotate(45.000000) translate(-53.776695, -1244.776695) " x="-45.7233047" y="1094.2767" width="199" height="301"></rect>
        <rect id="Rectangle-Copy-6" stroke="#CBF6FB" stroke-width="3" transform="translate(826.403066, 139.596934) rotate(45.000000) translate(-826.403066, -139.596934) " x="743.903066" y="121.096934" width="165" height="37"></rect>
        <rect id="Rectangle-Copy-55" stroke="#CBF6FB" stroke-width="3" transform="translate(169.915999, 306.227616) rotate(45.000000) translate(-169.915999, -306.227616) " x="87.4159992" y="287.727616" width="165" height="37"></rect>
        <rect id="Rectangle-Copy-37" stroke="#CBF6FB" stroke-width="3" transform="translate(133.679762, 1164.873629) rotate(45.000000) translate(-133.679762, -1164.873629) " x="51.1797616" y="1146.37363" width="165" height="37"></rect>
        <rect id="Rectangle-Copy-7" stroke="#CBF6FB" stroke-width="3" transform="translate(798.118795, 167.881205) rotate(45.000000) translate(-798.118795, -167.881205) " x="715.618795" y="156.381205" width="165" height="23"></rect>
        <rect id="Rectangle-Copy-56" stroke="#CBF6FB" stroke-width="3" transform="translate(141.631728, 334.511887) rotate(45.000000) translate(-141.631728, -334.511887) " x="59.131728" y="323.011887" width="165" height="23"></rect>
        <rect id="Rectangle-Copy-39" stroke="#CBF6FB" stroke-width="3" transform="translate(105.395490, 1193.157900) rotate(45.000000) translate(-105.395490, -1193.157900) " x="22.8954903" y="1181.6579" width="165" height="23"></rect>
        <rect id="Rectangle-Copy-8" stroke="#CBF6FB" stroke-width="3" transform="translate(716.801515, 249.198485) rotate(45.000000) translate(-716.801515, -249.198485) " x="634.301515" y="159.698485" width="165" height="179"></rect>
        <rect id="Rectangle-Copy-40" stroke="#CBF6FB" stroke-width="3" transform="translate(24.078210, 1274.475180) rotate(45.000000) translate(-24.078210, -1274.475180) " x="-58.4217895" y="1184.97518" width="165" height="179"></rect>
        <rect id="Rectangle-Copy-9" stroke="#CBF6FB" stroke-width="3" transform="translate(762.056349, 203.943651) rotate(45.000000) translate(-762.056349, -203.943651) " x="690.556349" y="190.443651" width="143" height="27"></rect>
        <rect id="Rectangle-Copy-58" stroke="#CBF6FB" stroke-width="3" transform="translate(109.569282, 366.574333) rotate(45.000000) translate(-109.569282, -366.574333) " x="27.0692821" y="353.074333" width="165" height="27"></rect>
        <rect id="Rectangle-Copy-41" stroke="#CBF6FB" stroke-width="3" transform="translate(69.333044, 1229.220346) rotate(45.000000) translate(-69.333044, -1229.220346) " x="-2.16695552" y="1215.72035" width="143" height="27"></rect>
        <rect id="Rectangle-Copy-10" stroke="#CBF6FB" stroke-width="3" transform="translate(735.186292, 230.813708) rotate(45.000000) translate(-735.186292, -230.813708) " x="663.686292" y="217.313708" width="143" height="27"></rect>
        <rect id="Rectangle-Copy-59" stroke="#CBF6FB" stroke-width="3" transform="translate(82.699224, 393.444390) rotate(45.000000) translate(-82.699224, -393.444390) " x="0.199224458" y="379.94439" width="165" height="27"></rect>
        <rect id="Rectangle-Copy-42" stroke="#CBF6FB" stroke-width="3" transform="translate(42.462987, 1256.090404) rotate(45.000000) translate(-42.462987, -1256.090404) " x="-29.0370132" y="1242.5904" width="143" height="27"></rect>
        <rect id="Rectangle-Copy-11" stroke="#CBF6FB" stroke-width="3" transform="translate(705.487807, 260.512193) rotate(45.000000) translate(-705.487807, -260.512193) " x="633.987807" y="247.012193" width="143" height="27"></rect>
        <rect id="Rectangle-Copy-60" stroke="#CBF6FB" stroke-width="3" transform="translate(53.000740, 423.142875) rotate(45.000000) translate(-53.000740, -423.142875) " x="-29.4992604" y="409.642875" width="165" height="27"></rect>
        <rect id="Rectangle-Copy-43" stroke="#CBF6FB" stroke-width="3" transform="translate(12.764502, 1285.788889) rotate(45.000000) translate(-12.764502, -1285.788889) " x="-58.735498" y="1272.28889" width="143" height="27"></rect>
        <rect id="Rectangle-Copy-12" stroke="#CBF6FB" stroke-width="3" transform="translate(671.546681, 294.453319) rotate(45.000000) translate(-671.546681, -294.453319) " x="600.046681" y="280.953319" width="143" height="27"></rect>
        <rect class="slower" id="Rectangle-Copy-44" stroke="#CBF6FB" stroke-width="3" transform="translate(-21.176624, 1319.730014) rotate(45.000000) translate(21.176624, -1319.730014) " x="-92.6766235" y="1306.23001" width="143" height="27"></rect>
        <path d="M663.445491,839.415091 C751.299747,862.117496 775.97368,822.390956 888.174982,823.989207 L887.922603,845.246715 C738.132433,867.399061 663.237347,881.080917 663.237347,886.292282 C663.237347,894.10933 886.683086,865.760441 885.613368,881.813231 C884.54365,897.866021 665.000639,936.332617 664.441337,944.485263 C664.068468,949.92036 738.670563,938.443506 888.247619,910.054701 L886.878979,973.201825 C738.641677,966.34573 664.257966,967.382272 663.727846,976.311452 C662.932666,989.705222 887.631715,1009.54233 886.533153,1019.37829 C885.800778,1025.9356 811.00413,1031.27029 662.143207,1035.38236" id="Path-12" stroke="#CBF6FB" stroke-width="2.85" stroke-linejoin="round" transform="translate(775.195413, 929.662214) rotate(45.000000) translate(-775.195413, -929.662214) "></path>
        <path d="M-39.371623,945.873277 C-8.03688932,945.873277 33.835508,963.877424 78.4623445,948.829933 C92.9333623,943.950526 75.7864039,896.535179 64.14038,878.808581 C52.6184818,861.270917 33.2070974,854.828733 -21.3021951,854.828733 C-75.8114876,854.828733 -120,869.742043 -120,888.138542 C-120,906.535041 -93.8809155,945.873277 -39.371623,945.873277 Z" id="Oval-Copy-56" stroke="#CBF6FB" stroke-width="2.85" transform="translate(-18.000000, 904.828733) rotate(135.000000) translate(18.000000, -904.828733) "></path>
        <path d="M-30.7223346,940.908288 C-15.1718358,940.908288 28.7186249,949.334368 43.7391396,944.133606 C54.3491348,940.45996 62,932.205696 62,928.149504 C62,915.759342 53.1722646,896.248309 53.1722646,889.798545 C53.1722646,874.627938 30.7387265,865.828733 -15.4207943,865.828733 C-61.580315,865.828733 -99,878.12694 -99,893.297547 C-99,908.468154 -76.8818553,940.908288 -30.7223346,940.908288 Z" id="Oval-Copy-51" stroke="#CBF6FB" stroke-width="2.85" transform="translate(-18.500000, 905.828733) rotate(135.000000) translate(18.500000, -905.828733) "></path>
        <rect id="Rectangle-Copy-20" stroke="#CBF6FB" stroke-width="2.85" transform="translate(131.500000, 974.328733) rotate(45.000000) translate(-131.500000, -974.328733) " x="115" y="957.828733" width="33" height="33"></rect>
        <path d="M-38.3287974,949.074344 C-1.92520965,949.074344 46.7206637,971.039402 98.5665473,952.681463 C115.378465,946.728586 95.4577339,888.881863 81.9277944,867.255414 C68.5420597,845.859464 45.9905985,838 -17.3363737,838 C-80.6633459,838 -132,856.194237 -132,878.637966 C-132,901.081695 -101.65577,949.074344 -38.3287974,949.074344 Z" id="Oval-Copy-50" stroke="#CBF6FB" stroke-width="2.85" transform="translate(-13.500000, 899.000000) rotate(135.000000) translate(13.500000, -899.000000) "></path>
        <path d="M64.8631523,754.828733 L171.856599,754.828733 C175.320155,754.828733 178.345606,757.170501 179.213902,760.523452 L184.683986,781.646354 C185.483612,784.734154 184.270071,787.992715 181.645469,789.805275 C171.50803,796.806225 161.809915,802.35423 152.551123,806.44929 C136.686569,813.466006 121.774773,814.513101 93.0118423,810.481195 C64.2489117,806.44929 56.4037767,799.232898 51.3348285,789.064677 C48.2393311,782.855163 50.5277298,772.758013 58.2000245,758.773227 C59.5345473,756.340707 62.0886065,754.828733 64.8631523,754.828733 Z" id="Rectangle" stroke="#CBF6FB" stroke-width="2.85" transform="translate(118.000000, 783.828733) scale(-1, 1) rotate(-45.000000) translate(-118.000000, -783.828733) "></path>
        <path d="M91.6314587,767.740115 L141.598412,767.740115 C145.065335,767.740115 148.092831,770.086348 148.957976,773.443591 L150.42007,779.117322 C151.229519,782.258425 149.95616,785.567055 147.249708,787.35503 C142.842272,790.266733 138.600297,792.628524 134.523782,794.440403 C126.358203,798.069739 118.683013,798.61134 103.878564,796.525872 C89.074114,794.440403 85.0361769,790.707787 82.4271595,785.448362 C80.99935,782.570092 81.7969871,778.076942 84.8200707,771.968912 C86.1019208,769.378987 88.7416751,767.740115 91.6314587,767.740115 Z" id="Rectangle-Copy-17" stroke="#CBF6FB" stroke-width="2.85" transform="translate(116.740115, 782.740115) scale(-1, 1) rotate(-45.000000) translate(-116.740115, -782.740115) "></path>
        <path d="M104.984142,775.740115 L128.951531,775.740115 C131.623345,775.740115 133.955255,777.551319 134.6164,780.140039 C135.315484,782.877314 134.156435,785.751529 131.754052,787.23812 C129.997904,788.324813 128.293238,789.238862 126.640053,789.980269 C122.323961,791.915915 118.267076,792.204768 110.441867,791.092519 C102.616658,789.980269 100.482319,787.98954 99.1032673,785.184513 C99.1032673,785.184513 99.1032673,785.184513 99.1032673,785.184513 C97.5064741,781.936596 98.8449747,778.009182 102.092892,776.412389 C102.992533,775.970093 103.981656,775.740096 104.984142,775.740115 Z" id="Rectangle-Copy-18" stroke="#CBF6FB" stroke-width="2.85" transform="translate(117.240115, 783.740115) scale(-1, 1) rotate(-45.000000) translate(-117.240115, -783.740115) "></path>
        <path d="M76.360295,760.740115 L157.393428,760.740115 C160.868855,760.740115 163.901504,763.097641 164.758658,766.465709 L168.458602,781.004142 C169.240947,784.078267 168.031705,787.31497 165.425348,789.123065 C157.85717,794.373297 150.605276,798.559128 143.669667,801.680557 C131.304647,807.245538 119.682218,808.075993 97.2640513,804.878275 C74.8458848,801.680557 68.7312943,795.957211 64.7804964,787.89276 C62.4360527,783.107232 64.053919,775.410315 69.6340954,764.802008 C70.9480145,762.304145 73.5379371,760.740115 76.360295,760.740115 Z" id="Rectangle-Copy-15" stroke="#CBF6FB" stroke-width="2.85" transform="translate(116.740115, 783.740115) scale(-1, 1) rotate(-45.000000) translate(-116.740115, -783.740115) "></path>
        <rect id="Rectangle-Copy-19" stroke="#CBF6FB" stroke-width="2.85" transform="translate(172.000000, 1069.328733) rotate(45.000000) translate(-172.000000, -1069.328733) " x="58" y="1058.82873" width="228" height="21"></rect>
        <rect id="Rectangle-Copy-31" stroke="#CBF6FB" stroke-width="2.85" transform="translate(602.925667, -14.192082) rotate(45.000000) translate(-602.925667, 14.192082) " x="501.425667" y="-30.6920818" width="203" height="33"></rect>
        <rect class="slower" id="Rectangle-Copy-36" stroke="#CBF6FB" stroke-width="2.85" transform="translate(603.925667, -15.192082) rotate(45.000000) translate(-603.925667, 15.192082) " x="502.425667" y="-31.6920818" width="203" height="33"></rect>
        <rect id="Rectangle-Copy-24" stroke="#CBF6FB" stroke-width="2.85" transform="translate(456.925667, -3.192082) rotate(45.000000) translate(-456.925667, 3.192082) " x="440.425667" y="-19.6920818" width="33" height="33"></rect>
        <rect id="Rectangle-Copy-38" stroke="#CBF6FB" stroke-width="2.85" transform="translate(497.425667, 91.807918) rotate(45.000000) translate(-497.425667, -91.807918) " x="383.425667" y="81.3079182" width="228" height="21"></rect>
        <rect id="Rectangle-Copy-51" stroke="#CBF6FB" stroke-width="2.85" transform="translate(153.307918, 1528.807918) rotate(45.000000) translate(-153.307918, -1528.807918) " x="51.8079182" y="1512.30792" width="203" height="33"></rect>
        <rect id="Rectangle-Copy-52" stroke="#CBF6FB" stroke-width="2.85" transform="translate(189.307918, 1492.807918) rotate(45.000000) translate(-189.307918, -1492.807918) " x="87.8079182" y="1476.30792" width="203" height="33"></rect>
        <rect class="slower" id="Rectangle-Copy-53" stroke="#CBF6FB" stroke-width="2.85" transform="translate(154.307918, 1527.807918) rotate(45.000000) translate(-154.307918, -1527.807918) " x="52.8079182" y="1511.30792" width="203" height="33"></rect>
        <rect id="Rectangle-Copy-32" stroke="#CBF6FB" stroke-width="2.85" transform="translate(638.925667, -50.192082) rotate(45.000000) translate(-638.925667, 50.192082) " x="537.425667" y="-66.6920818" width="203" height="33"></rect>
        <rect id="Rectangle-Copy-78" stroke="#CBF6FB" stroke-width="2.85" transform="translate(997.828733, 1146.828733) rotate(45.000000) translate(-997.828733, -1146.828733) " x="830.328733" y="1021.82873" width="335" height="250"></rect>
        <rect id="Rectangle-Copy-79" stroke="#CBF6FB" stroke-width="2.85" transform="translate(997.328733, 1146.828733) rotate(45.000000) translate(-997.328733, -1146.828733) " x="852.328733" y="1045.82873" width="290" height="202"></rect>
        <rect class="slower" id="Rectangle-Copy-80" stroke="#CBF6FB" stroke-width="2.85" transform="translate(1046.328733, 1099.328733) rotate(45.000000) translate(-1046.328733, -1099.328733) " x="918.328733" y="1080.82873" width="256" height="37"></rect>
        <rect id="Rectangle-Copy-81" stroke="#CBF6FB" stroke-width="2.85" transform="translate(1014.328733, 1130.828733) rotate(45.000000) translate(-1014.328733, -1130.828733) " x="886.328733" y="1119.82873" width="256" height="22"></rect>
        <rect id="Rectangle-Copy-82" stroke="#CBF6FB" stroke-width="2.85" transform="translate(989.828733, 1155.828733) rotate(45.000000) translate(-989.828733, -1155.828733) " x="861.328733" y="1144.82873" width="257" height="22"></rect>
        <rect id="Rectangle-Copy-83" stroke="#CBF6FB" stroke-width="2.85" transform="translate(901.828733, 1145.328733) rotate(45.000000) translate(-901.828733, -1145.328733) " x="842.328733" y="1126.82873" width="119" height="37"></rect>
        <rect class="slower" id="Rectangle-Copy-84" stroke="#CBF6FB" stroke-width="2.85" transform="translate(874.592929, 1321.592929) rotate(45.000000) translate(-874.592929, -1321.592929) " x="734.092929" y="1266.09293" width="281" height="111"></rect>
        <rect id="Rectangle-Copy-85" stroke="#CBF6FB" stroke-width="2.85" transform="translate(1001.592929, 1381.592929) rotate(45.000000) translate(-1001.592929, -1381.592929) " x="993.092929" y="1373.09293" width="17" height="17"></rect>
        <rect id="Rectangle-Copy-86" stroke="#CBF6FB" stroke-width="2.85" transform="translate(905.592929, 1326.592929) rotate(45.000000) translate(-905.592929, -1326.592929) " x="816.092929" y="1310.09293" width="179" height="33"></rect>
        <rect id="Rectangle-Copy-87" stroke="#CBF6FB" stroke-width="2.85" transform="translate(819.592929, 1241.592929) rotate(45.000000) translate(-819.592929, -1241.592929) " x="803.092929" y="1225.09293" width="33" height="33"></rect>
        <rect id="Rectangle-Copy-88" stroke="#CBF6FB" stroke-width="2.85" transform="translate(860.092929, 1336.592929) rotate(45.000000) translate(-860.092929, -1336.592929) " x="746.092929" y="1326.09293" width="228" height="21"></rect>
        <circle class="slower" id="Oval-Copy-5" stroke="#CBF6FB" stroke-width="2.85" transform="translate(901.000000, 819.828733) rotate(45.000000) translate(-901.000000, -819.828733) " cx="901" cy="819.828733" r="18"></circle>
        <circle class="slower" id="Oval-Copy-7" stroke="#CBF6FB" stroke-width="2.85" transform="translate(933.000000, 851.828733) rotate(45.000000) translate(-933.000000, -851.828733) " cx="933" cy="851.828733" r="18"></circle>
        <circle class="slower" id="Oval-Copy-12" stroke="#CBF6FB" stroke-width="2.85" transform="translate(966.000000, 883.828733) rotate(45.000000) translate(-966.000000, -883.828733) " cx="966" cy="883.828733" r="18"></circle>
        <path d="M625.189527,573.74106 C712.934777,543.56238 785.890091,545.347583 844.05547,579.096669 C828.235362,575.526263 813.868161,573.74106 800.953869,573.74106 C781.582431,573.74106 735.284427,557.776636 727.428466,573.74106 C719.572504,589.705484 651.674432,572.078289 644.682893,586.927858 C640.021866,596.827571 634.744897,605.825419 628.851985,613.921404 C648.215897,609.230634 662.020547,606.14543 670.265934,604.665793 C716.972665,596.284259 743.192282,600.24929 748.924783,616.560886 C759.800511,647.507317 823.798229,614.289181 831.143915,627.546099 C838.489601,640.803018 851.189527,639.603019 851.189527,659.907238" id="Path-13" stroke="#CBF6FB" stroke-width="2.85" transform="translate(738.189527, 606.139206) rotate(45.000000) translate(-738.189527, -606.139206) "></path>
        <path d="" id="Path-14" stroke="#CBF6FB" stroke-width="2.85" transform="translate(665.500000, 534.328733) rotate(45.000000) translate(-665.500000, -534.328733) "></path>
        <path d="M641.789561,608.088239 C651.157269,614.346522 656.661528,616.325331 658.302337,614.024668 C660.763551,610.573673 644.718289,594.963853 648.065412,593.893915 C651.412534,592.823976 668.153396,613.936939 673.648453,611.63185 C679.143509,609.32676 662.030715,588.114259 667.598129,587.419759 C673.165543,586.725259 688.715578,608.463649 697.970746,608.229931 C707.225914,607.996213 698.934154,588.653143 706.840159,588.540902 C714.746164,588.428662 719.546887,607.974833 727.335771,605.950378 C735.124656,603.925923 727.786557,574.828997 734.000176,577.994255 C740.213795,581.159512 744.124314,618.328231 748.965354,616.586589 C753.806394,614.844946 736.28515,570.859102 750.539746,575.710197 C764.794342,580.561291 785.958469,631.808875 796.632144,633.07622 C807.305819,634.343565 789.662186,582.004029 796.051056,581.114008 C802.439927,580.223988 816.678275,627.988976 822.992492,629.404013 C829.306708,630.819051 815.439677,581.561998 824.009384,583.270047 C829.722522,584.408747 839.982581,601.899254 854.789561,635.741567 L854.789561,588.428522 L841.320076,585.613387" id="Path-15" stroke="#CBF6FB" stroke-width="2.85" transform="translate(748.289561, 605.539173) rotate(45.000000) translate(-748.289561, -605.539173) "></path>
        <rect id="Rectangle" stroke="#CBF6FB" stroke-width="2.85" transform="translate(901.500000, 819.328733) rotate(45.000000) translate(-901.500000, -819.328733) " x="777" y="786.828733" width="249" height="65"></rect>
        <circle class="slower" id="Oval" stroke="#CBF6FB" stroke-width="2.85" transform="translate(837.000000, 754.828733) rotate(45.000000) translate(-837.000000, -754.828733) " cx="837" cy="754.828733" r="18"></circle>
        <circle class="slower" id="Oval-Copy-3" stroke="#CBF6FB" stroke-width="2.85" transform="translate(869.000000, 786.828733) rotate(45.000000) translate(-869.000000, -786.828733) " cx="869" cy="786.828733" r="18"></circle>
        <rect id="Rectangle-Copy-64" stroke="#CBF6FB" stroke-width="2.85" transform="translate(773.544462, 1460.544462) rotate(45.000000) translate(-773.544462, -1460.544462) " x="606.044462" y="1375.54446" width="335" height="170"></rect>
        <rect id="Rectangle-Copy-65" stroke="#CBF6FB" stroke-width="2.85" transform="translate(671.544462, 1430.544462) scale(1, -1) rotate(-45.000000) translate(-671.544462, -1430.544462) " x="613.044462" y="1421.54446" width="117" height="18"></rect>
        <circle class="slower" id="Mask-Copy" stroke="#CBF6FB" stroke-width="2.85" transform="translate(725.044462, 1378.544462) rotate(45.000000) translate(-725.044462, -1378.544462) " cx="725.044462" cy="1378.54446" r="48"></circle>
        <path d="M721.698502,1339.54446 C737.441945,1339.54446 750.204527,1354.43249 750.204527,1372.7978 C750.204527,1391.1631 737.441945,1406.05113 721.698502,1406.05113 C719.244739,1406.05113 716.863387,1405.68947 714.591482,1405.00935 C724.268173,1408.41314 733.534513,1404.82259 739.889948,1398.43134 C745.074793,1393.21728 751.802065,1401.45468 756.044462,1410.94545 C747.342755,1419.95053 735.170235,1425.54446 721.698502,1425.54446 C708.067059,1425.54446 695.765815,1419.81711 687.044462,1410.62477 C690.291801,1402.2433 696.565179,1393.91951 701.492892,1396.25191 C696.362687,1390.24044 693.192477,1381.951 693.192477,1372.7978 C693.192477,1354.43249 705.955059,1339.54446 721.698502,1339.54446 Z" id="Path-Copy" stroke="#CBF6FB" stroke-width="2.85" transform="translate(721.544462, 1382.544462) rotate(45.000000) translate(-721.544462, -1382.544462) "></path>
        <ellipse id="Oval-Copy-2" stroke="#CBF6FB" stroke-width="2.85" transform="translate(728.544462, 1375.544462) rotate(45.000000) translate(-728.544462, -1375.544462) " cx="728.544462" cy="1375.54446" rx="28.5" ry="33"></ellipse>
        <path d="" id="Path-16-Copy" stroke="#979797" stroke-width="2.85" transform="translate(657.544462, 1412.044462) rotate(45.000000) translate(-657.544462, -1412.044462) "></path>
        <rect id="Rectangle-Copy-66" stroke="#CBF6FB" stroke-width="2.85" transform="translate(804.544462, 1533.544462) scale(1, -1) rotate(-45.000000) translate(-804.544462, -1533.544462) " x="726.044462" y="1503.54446" width="157" height="60"></rect>
        <path d="M753.044462,1367.40324 C750.323716,1365.72614 748.572335,1364.16185 744.44711,1364.62784 C741.803079,1364.92651 738.750245,1367.68705 738.750245,1374.75402 C738.750245,1378.54624 741.676074,1386.11106 740.292707,1390.8614 C739.826333,1392.46288 738.4587,1393.75639 737.085012,1394.71308 C735.212874,1396.01692 732.009128,1396.15671 727.044462,1392.38249" id="Path-Copy-2" stroke="#CBF6FB" stroke-width="2.85" transform="translate(740.044462, 1380.044462) rotate(45.000000) translate(-740.044462, -1380.044462) "></path>
        <circle class="slower" id="Oval-Copy-4" stroke="#CBF6FB" stroke-width="2.85" transform="translate(728.544462, 1362.044462) rotate(45.000000) translate(-728.544462, -1362.044462) " cx="728.544462" cy="1362.04446" r="2.5"></circle>
        <circle class="slower" id="Oval-Copy-6" stroke="#CBF6FB" stroke-width="2.85" transform="translate(746.544462, 1381.044462) rotate(45.000000) translate(-746.544462, -1381.044462) " cx="746.544462" cy="1381.04446" r="2.5"></circle>
        <path d="M718.044462,1363.54446 C721.044462,1363.54446 722.810377,1364.10004 724.044462,1365.54446" id="Path-2-Copy" stroke="#CBF6FB" stroke-width="2.85" fill="#FFFFFF" transform="translate(721.044462, 1364.544462) rotate(45.000000) translate(-721.044462, -1364.544462) "></path>
        <path d="M707.044462,1388.54446 C714.540928,1392.28515 717.481218,1392.60801 725.044462,1389.05958" id="Path-3-Copy" stroke="#CBF6FB" stroke-width="2.85" transform="translate(716.044462, 1390.044462) rotate(45.000000) translate(-716.044462, -1390.044462) "></path>
        <rect id="Rectangle-Copy-67" stroke="#CBF6FB" stroke-width="2.85" transform="translate(868.544462, 1470.544462) scale(1, -1) rotate(-45.000000) translate(-868.544462, -1470.544462) " x="790.044462" y="1461.54446" width="157" height="18"></rect>
        <rect id="Rectangle-Copy-68" stroke="#CBF6FB" stroke-width="2.85" transform="translate(844.544462, 1494.544462) scale(1, -1) rotate(-45.000000) translate(-844.544462, -1494.544462) " x="766.044462" y="1485.54446" width="157" height="18"></rect>
        <path d="" id="Path-9-Copy" stroke="#CBF6FB" stroke-width="2.85" transform="translate(796.544462, 1444.044462) rotate(45.000000) translate(-796.544462, -1444.044462) "></path>
        <rect id="Rectangle-Copy-89" stroke="#CBF6FB" stroke-width="2.85" transform="translate(946.388348, 708.388348) rotate(45.000000) translate(-946.388348, -708.388348) " x="870.388348" y="659.388348" width="152" height="98"></rect>
        <rect id="Rectangle-Copy-90" stroke="#CBF6FB" stroke-width="2.85" transform="translate(946.388348, 708.388348) rotate(45.000000) translate(-946.388348, -708.388348) " x="887.388348" y="675.388348" width="118" height="66"></rect>
        <rect id="Rectangle-Copy-91" stroke="#CBF6FB" stroke-width="2.85" transform="translate(951.888348, 703.388348) rotate(45.000000) translate(-951.888348, -703.388348) " x="902.388348" y="690.388348" width="99" height="26"></rect>
        <rect id="Rectangle-Copy-92" stroke="#CBF6FB" stroke-width="2.85" transform="translate(933.888348, 721.388348) rotate(45.000000) translate(-933.888348, -721.388348) " x="884.388348" y="716.388348" width="99" height="10"></rect>
        <rect id="Rectangle-Copy-101" stroke="#CBF6FB" stroke-width="2.85" transform="translate(1025.092929, 318.807918) rotate(45.000000) translate(-1025.092929, -318.807918) " x="885.092929" y="183.307918" width="280" height="271"></rect>
        <rect id="Rectangle-Copy-102" stroke="#CBF6FB" stroke-width="2.85" transform="translate(1061.592929, 282.307918) rotate(45.000000) translate(-1061.592929, -282.307918) " x="960.092929" y="225.307918" width="203" height="114"></rect>
        <rect id="Rectangle-Copy-103" stroke="#CBF6FB" stroke-width="2.85" transform="translate(960.592929, 383.807918) rotate(45.000000) translate(-960.592929, -383.807918) " x="859.092929" y="367.307918" width="203" height="33"></rect>
        <rect class="slower" id="Rectangle-Copy-104" stroke="#CBF6FB" stroke-width="2.85" transform="translate(996.592929, 347.807918) rotate(45.000000) translate(-996.592929, -347.807918) " x="895.092929" y="331.307918" width="203" height="33"></rect>
        <rect id="Rectangle-Copy-105" stroke="#CBF6FB" stroke-width="2.85" transform="translate(961.592929, 382.807918) rotate(45.000000) translate(-961.592929, -382.807918) " x="860.092929" y="366.307918" width="203" height="33"></rect>
        <rect id="Rectangle-Copy-106" stroke="#CBF6FB" stroke-width="2.85" transform="translate(861.107648, 466.322637) rotate(45.000000) translate(-861.107648, -466.322637) " x="732.607648" y="410.822637" width="257" height="111"></rect>
        <rect id="Rectangle-Copy-112" stroke="#CBF6FB" stroke-width="2.85" transform="translate(891.046988, 470.261977) rotate(45.000000) translate(-891.046988, -470.261977) " x="815.046988" y="453.761977" width="152" height="33"></rect>
        <rect id="Rectangle-Copy-113" stroke="#CBF6FB" stroke-width="2.85" transform="translate(814.592929, 394.807918) rotate(45.000000) translate(-814.592929, -394.807918) " x="798.092929" y="378.307918" width="33" height="33"></rect>
        <rect id="Rectangle-Copy-114" stroke="#CBF6FB" stroke-width="2.85" transform="translate(845.546988, 480.261977) rotate(45.000000) translate(-845.546988, -480.261977) " x="745.046988" y="469.761977" width="201" height="21"></rect>
        <rect id="Rectangle-Copy-93" stroke="#CBF6FB" stroke-width="2.85" transform="translate(-12.474567, 117.525433) rotate(45.000000) translate(12.474567, -117.525433) " x="-125.974567" y="-53.9745674" width="227" height="343"></rect>
        <rect class="slower" id="Rectangle-Copy-94" stroke="#CBF6FB" stroke-width="2.85" transform="translate(78.025433, 27.025433) rotate(45.000000) translate(-78.025433, -27.025433) " x="-15.9745674" y="6.02543264" width="188" height="42"></rect>
        <rect id="Rectangle-Copy-95" stroke="#CBF6FB" stroke-width="2.85" transform="translate(46.025433, 59.025433) rotate(45.000000) translate(-46.025433, -59.025433) " x="-47.9745674" y="46.0254326" width="188" height="26"></rect>
        <rect id="Rectangle-Copy-96" stroke="#CBF6FB" stroke-width="2.85" transform="translate(-46.974567, 152.025433) rotate(45.000000) translate(46.974567, -152.025433) " x="-140.974567" y="50.0254326" width="188" height="204"></rect>
        <rect id="Rectangle-Copy-97" stroke="#CBF6FB" stroke-width="2.85" transform="translate(5.525433, 100.525433) rotate(45.000000) translate(-5.525433, -100.525433) " x="-75.9745674" y="85.0254326" width="163" height="31"></rect>
        <rect id="Rectangle-Copy-99" stroke="#CBF6FB" stroke-width="2.85" transform="translate(-25.474567, 130.525433) rotate(45.000000) translate(25.474567, -130.525433) " x="-106.974567" y="115.025433" width="163" height="31"></rect>
        <rect id="Rectangle-Copy-100" stroke="#CBF6FB" stroke-width="2.85" transform="translate(-59.474567, 164.525433) rotate(45.000000) translate(59.474567, -164.525433) " x="-140.974567" y="149.025433" width="163" height="31"></rect>
        <rect class="slower" id="Rectangle-Copy-108" stroke="#CBF6FB" stroke-width="2.85" transform="translate(886.388348, 46.388348) rotate(45.000000) translate(-886.388348, -46.388348) " x="810.388348" y="-2.61165235" width="152" height="98"></rect>
        <rect id="Rectangle-Copy-109" stroke="#CBF6FB" stroke-width="2.85" transform="translate(886.388348, 46.388348) rotate(45.000000) translate(-886.388348, -46.388348) " x="827.388348" y="13.3883476" width="118" height="66"></rect>
        <rect id="Rectangle-Copy-110" stroke="#CBF6FB" stroke-width="2.85" transform="translate(891.888348, 41.388348) rotate(45.000000) translate(-891.888348, -41.388348) " x="842.388348" y="28.3883476" width="99" height="26"></rect>
        <rect id="Rectangle-Copy-111" stroke="#CBF6FB" stroke-width="2.85" transform="translate(873.888348, 59.388348) rotate(45.000000) translate(-873.888348, -59.388348) " x="824.388348" y="54.3883476" width="99" height="10"></rect>
        <rect id="Rectangle-Copy-115" stroke="#CBF6FB" stroke-width="2.85" transform="translate(191.388348, -29.611652) rotate(45.000000) translate(-191.388348, 29.611652) " x="115.388348" y="-78.6116524" width="152" height="98"></rect>
        <rect id="Rectangle-Copy-116" stroke="#CBF6FB" stroke-width="2.85" transform="translate(191.388348, -29.611652) rotate(45.000000) translate(-191.388348, 29.611652) " x="132.388348" y="-62.6116524" width="118" height="66"></rect>
        <rect id="Rectangle-Copy-117" stroke="#CBF6FB" stroke-width="2.85" transform="translate(196.888348, -34.611652) rotate(45.000000) translate(-196.888348, 34.611652) " x="147.388348" y="-47.6116524" width="99" height="26"></rect>
        <rect id="Rectangle-Copy-118" stroke="#CBF6FB" stroke-width="2.85" transform="translate(178.888348, -16.611652) rotate(45.000000) translate(-178.888348, 16.611652) " x="129.388348" y="-21.6116524" width="99" height="10"></rect>
        <path d="M-27.8544569,930.828733 C-6.42315722,930.828733 19.9197254,921.267762 32.2855378,916.878461 C41.4310518,913.632219 39.9043513,899.897291 39.9043513,895.430193 C39.9043513,884.923051 21.7855472,878.828733 -15.4959244,878.828733 C-52.7773959,878.828733 -83,887.346455 -83,897.853597 C-83,908.360739 -65.1359284,930.828733 -27.8544569,930.828733 Z" id="Oval-Copy-54" stroke="#CBF6FB" stroke-width="2.85" transform="translate(-21.500000, 904.828733) rotate(135.000000) translate(21.500000, -904.828733) "></path>
        <path d="M-24.4447483,916.828733 C-14.5131704,916.828733 -2.30549313,912.232113 3.4250053,910.121872 C7.66317033,908.561179 6.95567499,901.957848 6.95567499,899.810204 C6.95567499,894.758694 -1.440844,891.828733 -18.7176235,891.828733 C-35.994403,891.828733 -50,895.923792 -50,900.975303 C-50,906.026813 -41.7215278,916.828733 -24.4447483,916.828733 Z" id="Oval-Copy-57" stroke="#CBF6FB" stroke-width="2.85" transform="translate(-21.500000, 904.328733) rotate(135.000000) translate(21.500000, -904.328733) "></path>
        <path d="M-34.1584277,738.630387 C-21.7661968,738.630387 -2.27580289,743.259526 4.87448683,734.16689 C10.1627018,727.442154 21.8086579,722.88638 21.8086579,713.632583 C21.8086579,691.866564 -12.6011442,659.808658 -34.1584277,659.808658 C-55.7157111,659.808658 -73.1913421,677.453503 -73.1913421,699.219522 C-73.1913421,720.985542 -55.7157111,738.630387 -34.1584277,738.630387 Z" id="Oval-Copy-26" stroke="#CBF6FB" stroke-width="2.85" transform="translate(-25.691342, 699.808658) scale(-1, 1) rotate(135.000000) translate(25.691342, -699.808658) "></path>
        <path d="M-39.684315,775.525757 C-19.204523,775.525757 13.0059175,784.494714 24.822712,766.877733 C33.5621832,753.848557 52.8086579,745.021744 52.8086579,727.092514 C52.8086579,684.920851 -4.05806773,622.808658 -39.684315,622.808658 C-75.3105624,622.808658 -104.191342,656.995545 -104.191342,699.167208 C-104.191342,741.33887 -75.3105624,775.525757 -39.684315,775.525757 Z" id="Oval" stroke="#CBF6FB" stroke-width="2.85" transform="translate(-25.691342, 700.308658) scale(-1, 1) rotate(135.000000) translate(25.691342, -700.308658) "></path>
        <path d="M-37.188753,757.070708 C-20.361408,757.070708 6.10449537,763.898688 15.8138361,750.487051 C22.9946755,740.568065 38.8086579,733.848298 38.8086579,720.198948 C38.8086579,688.094069 -7.91623132,640.808658 -37.188753,640.808658 C-66.4612747,640.808658 -90.1913421,666.834804 -90.1913421,698.939683 C-90.1913421,731.044561 -66.4612747,757.070708 -37.188753,757.070708 Z" id="Oval-Copy-25" stroke="#CBF6FB" stroke-width="2.85" transform="translate(-25.691342, 699.808658) scale(-1, 1) rotate(135.000000) translate(25.691342, -699.808658) "></path>
        <rect id="Rectangle-Copy-23" stroke="#CBF6FB" stroke-width="2.85" transform="translate(389.654329, 158.591143) rotate(45.000000) translate(-389.654329, -158.591143) " x="261.654329" y="140.091143" width="256" height="37"></rect>
        <rect id="Rectangle-Copy-24" stroke="#CBF6FB" stroke-width="2.85" transform="translate(357.654329, 190.091143) rotate(45.000000) translate(-357.654329, -190.091143) " x="229.654329" y="179.091143" width="256" height="22"></rect>
        <rect id="Rectangle-Copy-31" stroke="#CBF6FB" stroke-width="2.85" transform="translate(333.154329, 215.091143) rotate(45.000000) translate(-333.154329, -215.091143) " x="204.654329" y="204.091143" width="257" height="22"></rect>
        <rect id="Rectangle-Copy-29" stroke="#CBF6FB" stroke-width="2.85" transform="translate(245.154329, 204.591143) rotate(45.000000) translate(-245.154329, -204.591143) " x="185.654329" y="186.091143" width="119" height="37"></rect>
        <rect id="Rectangle" stroke="#CBF6FB" stroke-width="2.85" transform="translate(530.654329, 237.091143) rotate(45.000000) translate(-530.654329, -237.091143) " x="518.654329" y="225.091143" width="24" height="24"></rect>
        <circle class="slower" id="Oval-Copy-72" stroke="#CBF6FB" stroke-width="2.85" transform="translate(457.455844, 1386.455844) rotate(45.000000) translate(-457.455844, -1386.455844) " cx="457.455844" cy="1386.45584" r="18"></circle>
        <circle class="slower" id="Oval-Copy-70" stroke="#CBF6FB" stroke-width="2.85" transform="translate(554.940079, 1482.940079) rotate(45.000000) translate(-554.940079, -1482.940079) " cx="554.940079" cy="1482.94008" r="18"></circle>
        <circle class="slower" id="Oval-Copy-68" stroke="#CBF6FB" stroke-width="2.85" transform="translate(489.455844, 1419.455844) rotate(45.000000) translate(-489.455844, -1419.455844) " cx="489.455844" cy="1419.45584" r="18"></circle>
        <circle class="slower" id="Oval-Copy-69" stroke="#CBF6FB" stroke-width="2.85" transform="translate(521.455844, 1451.455844) rotate(45.000000) translate(-521.455844, -1451.455844) " cx="521.455844" cy="1451.45584" r="18"></circle>
    </g>
</svg>