<?xml version="1.0" encoding="UTF-8"?>
<svg width="320px" height="1039px" viewBox="0 0 320 1039" version="1.1" xmlns="http://www.w3.org/2000/svg" xmlns:xlink="http://www.w3.org/1999/xlink">
    <!-- Generator: Sketch 57.1 (83088) - https://sketch.com -->
    <title>web cover copy</title>
    <desc>Created with Sketch.</desc>
    <g id="web-cover-copy" stroke="none" stroke-width="1" fill="none" fill-rule="evenodd" stroke-linecap="round">
        <rect id="Rectangle" stroke="#CBF6FB" stroke-width="2.85" transform="translate(262.500000, 833.328733) rotate(45.000000) translate(-262.500000, -833.328733) " x="95" y="661.828733" width="335" height="343"></rect>
        <rect id="Rectangle-Copy-6" stroke="#CBF6FB" stroke-width="2.85" transform="translate(354.500000, 742.828733) rotate(45.000000) translate(-354.500000, -742.828733) " x="215" y="721.828733" width="279" height="42"></rect>
        <rect id="Rectangle-Copy-7" stroke="#CBF6FB" stroke-width="2.85" transform="translate(321.500000, 773.828733) rotate(45.000000) translate(-321.500000, -773.828733) " x="182" y="760.828733" width="279" height="26"></rect>
        <rect id="Rectangle-Copy-8" stroke="#CBF6FB" stroke-width="2.85" transform="translate(228.500000, 866.828733) rotate(45.000000) translate(-228.500000, -866.828733) " x="89" y="764.828733" width="279" height="204"></rect>
        <rect id="Rectangle-Copy-9" stroke="#CBF6FB" stroke-width="2.85" transform="translate(281.000000, 815.328733) rotate(45.000000) translate(-281.000000, -815.328733) " x="160" y="799.828733" width="242" height="31"></rect>
        <rect id="Rectangle-Copy-10" stroke="#CBF6FB" stroke-width="2.85" transform="translate(250.000000, 846.328733) rotate(45.000000) translate(-250.000000, -846.328733) " x="129" y="830.828733" width="242" height="31"></rect>
        <rect id="Rectangle-Copy-11" stroke="#CBF6FB" stroke-width="2.85" transform="translate(216.000000, 880.328733) rotate(45.000000) translate(-216.000000, -880.328733) " x="95" y="864.828733" width="242" height="31"></rect>
        <rect id="Rectangle-Copy-12" stroke="#CBF6FB" stroke-width="2.85" transform="translate(178.000000, 918.328733) rotate(45.000000) translate(-178.000000, -918.328733) " x="57" y="902.828733" width="242" height="31"></rect>
        <rect id="Rectangle" stroke="#CBF6FB" stroke-width="2.85" transform="translate(478.000000, 605.828733) rotate(45.000000) translate(-478.000000, -605.828733) " x="365" y="492.828733" width="226" height="226"></rect>
        <path d="M332,613.353153 L370.077754,572.828733 L396.157206,586.756413 L426.802561,572.828733 C441.278163,577.460164 451.839696,583.51998 458.487158,591.00818 C465.13462,598.49638 478.391624,600.775583 498.258168,597.845789 L515.996008,572.828733 L535.560209,593.090943 L558,586.756413 L558,637.731843 L332,637.731843 L332,654.988841 L558,669.665551 L332,695.537819 L332,703.828733 L535.560209,703.828733 L558,679.934029 L558,664.545126" id="Path-11" stroke="#CBF6FB" stroke-width="2.85" transform="translate(445.000000, 638.328733) rotate(45.000000) translate(-445.000000, -638.328733) "></path>
        <rect id="Rectangle-Copy-13" stroke="#CBF6FB" stroke-width="2.85" transform="translate(259.000000, 104.828733) rotate(45.000000) translate(-259.000000, -104.828733) " x="146" y="-8.1712665" width="226" height="226"></rect>
        <rect id="Rectangle-Copy-14" stroke="#CBF6FB" stroke-width="2.85" transform="translate(439.000000, 284.828733) rotate(45.000000) translate(-439.000000, -284.828733) " x="326" y="171.828733" width="226" height="226"></rect>
        <rect id="Rectangle-Copy-4" stroke="#CBF6FB" stroke-width="2.85" transform="translate(233.500000, 400.828733) rotate(45.000000) translate(-233.500000, -400.828733) " x="66" y="315.828733" width="335" height="170"></rect>
        <rect id="Rectangle-Copy" stroke="#CBF6FB" stroke-width="2.85" transform="translate(131.500000, 370.828733) scale(1, -1) rotate(-45.000000) translate(-131.500000, -370.828733) " x="73" y="361.828733" width="117" height="18"></rect>
        <circle id="Mask" stroke="#CBF6FB" stroke-width="2.85" transform="translate(185.000000, 318.828733) rotate(45.000000) translate(-185.000000, -318.828733) " cx="185" cy="318.828733" r="48"></circle>
        <path d="M181.65404,279.828733 C197.397483,279.828733 210.160065,294.716758 210.160065,313.082067 C210.160065,331.447376 197.397483,346.3354 181.65404,346.3354 C179.200277,346.3354 176.818925,345.973738 174.54702,345.293617 C184.223711,348.697412 193.49005,345.106862 199.845485,338.715611 C205.030331,333.501548 211.757603,341.738951 216,351.229725 C207.298293,360.2348 195.125772,365.828733 181.65404,365.828733 C168.022597,365.828733 155.721353,360.101379 147,350.909041 C150.247338,342.527571 156.520717,334.203782 161.44843,336.536186 C156.318225,330.524715 153.148015,322.235267 153.148015,313.082067 C153.148015,294.716758 165.910597,279.828733 181.65404,279.828733 Z" id="Path" stroke="#CBF6FB" stroke-width="2.85" transform="translate(181.500000, 322.828733) rotate(45.000000) translate(-181.500000, -322.828733) "></path>
        <ellipse id="Oval" stroke="#CBF6FB" stroke-width="2.85" transform="translate(188.500000, 315.828733) rotate(45.000000) translate(-188.500000, -315.828733) " cx="188.5" cy="315.828733" rx="28.5" ry="33"></ellipse>
        <path d="" id="Path-16" stroke="#979797" stroke-width="2.85" transform="translate(117.500000, 352.328733) rotate(45.000000) translate(-117.500000, -352.328733) "></path>
        <rect id="Rectangle-Copy-5" stroke="#CBF6FB" stroke-width="2.85" transform="translate(264.500000, 473.828733) scale(1, -1) rotate(-45.000000) translate(-264.500000, -473.828733) " x="186" y="443.828733" width="157" height="60"></rect>
        <path d="M213,307.687507 C210.279253,306.010409 208.527873,304.446122 204.402648,304.912112 C201.758617,305.210784 198.705782,307.971324 198.705782,315.03829 C198.705782,318.83051 201.631612,326.395333 200.248245,331.145671 C199.781871,332.747149 198.414238,334.040659 197.04055,334.997354 C195.168412,336.301192 191.964666,336.440984 187,332.666764" id="Path" stroke="#CBF6FB" stroke-width="2.85" transform="translate(200.000000, 320.328733) rotate(45.000000) translate(-200.000000, -320.328733) "></path>
        <circle id="Oval" stroke="#CBF6FB" stroke-width="2.85" transform="translate(188.500000, 302.328733) rotate(45.000000) translate(-188.500000, -302.328733) " cx="188.5" cy="302.328733" r="2.5"></circle>
        <circle id="Oval-Copy" stroke="#CBF6FB" stroke-width="2.85" transform="translate(206.500000, 321.328733) rotate(45.000000) translate(-206.500000, -321.328733) " cx="206.5" cy="321.328733" r="2.5"></circle>
        <path d="M178,303.828733 C181,303.828733 182.765915,304.384311 184,305.828733" id="Path-2" stroke="#CBF6FB" stroke-width="2.85" fill="#FFFFFF" transform="translate(181.000000, 304.828733) rotate(45.000000) translate(-181.000000, -304.828733) "></path>
        <path d="M167,328.828733 C174.496465,332.569423 177.436756,332.892283 185,329.343849" id="Path-3" stroke="#CBF6FB" stroke-width="2.85" transform="translate(176.000000, 330.328733) rotate(45.000000) translate(-176.000000, -330.328733) "></path>
        <rect id="Rectangle-Copy-2" stroke="#CBF6FB" stroke-width="2.85" transform="translate(328.500000, 410.828733) scale(1, -1) rotate(-45.000000) translate(-328.500000, -410.828733) " x="250" y="401.828733" width="157" height="18"></rect>
        <rect id="Rectangle-Copy-3" stroke="#CBF6FB" stroke-width="2.85" transform="translate(304.500000, 434.828733) scale(1, -1) rotate(-45.000000) translate(-304.500000, -434.828733) " x="226" y="425.828733" width="157" height="18"></rect>
        <path d="" id="Path-9" stroke="#CBF6FB" stroke-width="2.85" transform="translate(256.500000, 384.328733) rotate(45.000000) translate(-256.500000, -384.328733) "></path>
        <rect id="Rectangle" stroke="#CBF6FB" stroke-width="2.85" transform="translate(-46.500000, 242.328733) rotate(45.000000) translate(46.500000, -242.328733) " x="-160" y="70.8287335" width="227" height="343"></rect>
        <rect id="Rectangle-Copy-6" stroke="#CBF6FB" stroke-width="2.85" transform="translate(44.000000, 151.828733) rotate(45.000000) translate(-44.000000, -151.828733) " x="-50" y="130.828733" width="188" height="42"></rect>
        <rect id="Rectangle-Copy-7" stroke="#CBF6FB" stroke-width="2.85" transform="translate(12.000000, 183.828733) rotate(45.000000) translate(-12.000000, -183.828733) " x="-82" y="170.828733" width="188" height="26"></rect>
        <rect id="Rectangle-Copy-8" stroke="#CBF6FB" stroke-width="2.85" transform="translate(-81.000000, 276.828733) rotate(45.000000) translate(81.000000, -276.828733) " x="-175" y="174.828733" width="188" height="204"></rect>
        <rect id="Rectangle-Copy-9" stroke="#CBF6FB" stroke-width="2.85" transform="translate(-28.500000, 225.328733) rotate(45.000000) translate(28.500000, -225.328733) " x="-110" y="209.828733" width="163" height="31"></rect>
        <rect id="Rectangle" stroke="#CBF6FB" stroke-width="2.85" transform="translate(50.000000, 569.328733) rotate(45.000000) translate(-50.000000, -569.328733) " x="-90" y="433.828733" width="280" height="271"></rect>
        <rect id="Rectangle-Copy-25" stroke="#CBF6FB" stroke-width="2.85" transform="translate(86.500000, 532.828733) rotate(45.000000) translate(-86.500000, -532.828733) " x="-15" y="475.828733" width="203" height="114"></rect>
        <rect id="Rectangle-Copy-27" stroke="#CBF6FB" stroke-width="2.85" transform="translate(-14.500000, 634.328733) rotate(45.000000) translate(14.500000, -634.328733) " x="-116" y="617.828733" width="203" height="33"></rect>
        <rect id="Rectangle-Copy-28" stroke="#CBF6FB" stroke-width="2.85" transform="translate(21.500000, 598.328733) rotate(45.000000) translate(-21.500000, -598.328733) " x="-80" y="581.828733" width="203" height="33"></rect>
        <rect id="Rectangle-Copy-26" stroke="#CBF6FB" stroke-width="2.85" transform="translate(-13.500000, 633.328733) rotate(45.000000) translate(13.500000, -633.328733) " x="-115" y="616.828733" width="203" height="33"></rect>
        <rect id="Rectangle" stroke="#CBF6FB" stroke-width="2.85" transform="translate(-105.500000, 725.328733) rotate(45.000000) translate(105.500000, -725.328733) " x="-246" y="669.828733" width="281" height="111"></rect>
        <rect id="Rectangle-Copy-21" stroke="#CBF6FB" stroke-width="2.85" transform="translate(21.500000, 785.328733) rotate(45.000000) translate(-21.500000, -785.328733) " x="13" y="776.828733" width="17" height="17"></rect>
        <rect id="Rectangle" stroke="#CBF6FB" stroke-width="2.85" transform="translate(48.500000, -122.171267) rotate(45.000000) translate(-48.500000, 122.171267) " x="-119" y="-247.171267" width="335" height="250"></rect>
        <rect id="Rectangle-Copy-22" stroke="#CBF6FB" stroke-width="2.85" transform="translate(48.000000, -122.171267) rotate(45.000000) translate(-48.000000, 122.171267) " x="-97" y="-223.171267" width="290" height="202"></rect>
        <rect id="Rectangle-Copy-30" stroke="#CBF6FB" stroke-width="2.85" transform="translate(50.500000, -25.671267) rotate(45.000000) translate(-50.500000, 25.671267) " x="-9" y="-44.1712665" width="119" height="37"></rect>
        <rect id="Rectangle" stroke="#CBF6FB" stroke-width="2.85" transform="translate(26.000000, 940.828733) rotate(45.000000) translate(-26.000000, -940.828733) " x="-50" y="891.828733" width="152" height="98"></rect>
        <rect id="Rectangle-Copy-33" stroke="#CBF6FB" stroke-width="2.85" transform="translate(26.000000, 940.828733) rotate(45.000000) translate(-26.000000, -940.828733) " x="-33" y="907.828733" width="118" height="66"></rect>
        <rect id="Rectangle-Copy-34" stroke="#CBF6FB" stroke-width="2.85" transform="translate(31.500000, 935.828733) rotate(45.000000) translate(-31.500000, -935.828733) " x="-18" y="922.828733" width="99" height="26"></rect>
        <rect id="Rectangle-Copy-35" stroke="#CBF6FB" stroke-width="2.85" transform="translate(13.500000, 953.828733) rotate(45.000000) translate(-13.500000, -953.828733) " x="-36" y="948.828733" width="99" height="10"></rect>
        <rect id="Rectangle-Copy-10" stroke="#CBF6FB" stroke-width="2.85" transform="translate(-59.500000, 255.328733) rotate(45.000000) translate(59.500000, -255.328733) " x="-141" y="239.828733" width="163" height="31"></rect>
        <rect id="Rectangle-Copy-16" stroke="#CBF6FB" stroke-width="2.85" transform="translate(-74.500000, 730.328733) rotate(45.000000) translate(74.500000, -730.328733) " x="-164" y="713.828733" width="179" height="33"></rect>
        <rect id="Rectangle-Copy-77" stroke="#CBF6FB" stroke-width="2.85" transform="translate(196.015765, 1089.015765) rotate(45.000000) translate(-196.015765, -1089.015765) " x="71.5157646" y="1056.51576" width="249" height="65"></rect>
        <circle id="Oval-Copy-71" stroke="#CBF6FB" stroke-width="2.85" transform="translate(131.515765, 1024.515765) rotate(45.000000) translate(-131.515765, -1024.515765) " cx="131.515765" cy="1024.51576" r="18"></circle>
        <circle id="Oval-Copy-72" stroke="#CBF6FB" stroke-width="2.85" transform="translate(163.515765, 1056.515765) rotate(45.000000) translate(-163.515765, -1056.515765) " cx="163.515765" cy="1056.51576" r="18"></circle>
        <circle id="Oval-Copy-74" stroke="#CBF6FB" stroke-width="2.85" transform="translate(262.000000, 0.000000) rotate(45.000000) translate(-262.000000, -0.000000) " cx="262" cy="0" r="18"></circle>
        <path d="M112.806133,113.330552 L150.883887,72.8061325 L176.963339,86.7338117 L207.608693,72.8061325 C222.084296,77.4375632 232.645828,83.4973786 239.29329,90.9855788 C245.940753,98.4737791 259.197756,100.752982 279.064301,97.8231882 L296.802141,72.8061325 L316.366342,93.0683425 L338.806133,86.7338117 L338.806133,137.709242 L112.806133,137.709242 L112.806133,154.96624 L338.806133,169.64295 L112.806133,195.515218 L112.806133,203.806133 L316.366342,203.806133 L338.806133,179.911428 L338.806133,164.522525" id="Path-11-Copy-2" stroke="#CBF6FB" stroke-width="2.85" transform="translate(225.806133, 138.306133) rotate(45.000000) translate(-225.806133, -138.306133) "></path>
    </g>
</svg>